<svg width="153" height="38" viewBox="0 0 153 38" fill="none" xmlns="http://www.w3.org/2000/svg">
<path d="M23.028 37H0.834V0.981997H7.152V31.438H23.028V37ZM60.3597 32.41C56.9037 35.902 52.4937 37.648 47.1297 37.648C41.7657 37.648 37.3557 35.902 33.8997 32.41C30.4437 28.882 28.7157 24.418 28.7157 19.018C28.7157 13.618 30.4437 9.172 33.8997 5.68C37.3557 2.152 41.7657 0.387998 47.1297 0.387998C52.4937 0.387998 56.9037 2.152 60.3597 5.68C63.8157 9.172 65.5437 13.618 65.5437 19.018C65.5437 24.418 63.8157 28.882 60.3597 32.41ZM47.1297 32.032C50.6937 32.032 53.5737 30.808 55.7697 28.36C57.9657 25.876 59.0637 22.762 59.0637 19.018C59.0637 15.238 57.9657 12.124 55.7697 9.676C53.5737 7.228 50.6937 6.004 47.1297 6.004C43.5297 6.004 40.6317 7.228 38.4357 9.676C36.2757 12.124 35.1957 15.238 35.1957 19.018C35.1957 22.798 36.2757 25.912 38.4357 28.36C40.6317 30.808 43.5297 32.032 47.1297 32.032ZM92.1467 37.702C86.8187 37.702 82.3367 35.974 78.7007 32.518C75.0647 29.062 73.2467 24.562 73.2467 19.018C73.2467 13.474 75.0647 8.992 78.7007 5.572C82.3367 2.116 86.8187 0.387998 92.1467 0.387998C98.3387 0.387998 103.181 2.89 106.673 7.894L101.489 10.81C100.481 9.406 99.1487 8.254 97.4927 7.354C95.8727 6.454 94.0907 6.004 92.1467 6.004C88.5827 6.004 85.6127 7.228 83.2367 9.676C80.8967 12.124 79.7267 15.238 79.7267 19.018C79.7267 22.798 80.8967 25.93 83.2367 28.414C85.6127 30.862 88.5827 32.086 92.1467 32.086C93.8387 32.086 95.4407 31.762 96.9527 31.114C98.5007 30.466 99.7427 29.71 100.679 28.846V23.23H89.9327V17.668H106.997V31.168C103.073 35.524 98.1227 37.702 92.1467 37.702ZM146.838 32.41C143.382 35.902 138.972 37.648 133.608 37.648C128.244 37.648 123.834 35.902 120.378 32.41C116.922 28.882 115.194 24.418 115.194 19.018C115.194 13.618 116.922 9.172 120.378 5.68C123.834 2.152 128.244 0.387998 133.608 0.387998C138.972 0.387998 143.382 2.152 146.838 5.68C150.294 9.172 152.022 13.618 152.022 19.018C152.022 24.418 150.294 28.882 146.838 32.41ZM133.608 32.032C137.172 32.032 140.052 30.808 142.248 28.36C144.444 25.876 145.542 22.762 145.542 19.018C145.542 15.238 144.444 12.124 142.248 9.676C140.052 7.228 137.172 6.004 133.608 6.004C130.008 6.004 127.11 7.228 124.914 9.676C122.754 12.124 121.674 15.238 121.674 19.018C121.674 22.798 122.754 25.912 124.914 28.36C127.11 30.808 130.008 32.032 133.608 32.032Z" fill="white"/>
</svg>
