<svg width="299" height="203" viewBox="0 0 299 203" fill="none" xmlns="http://www.w3.org/2000/svg">
<path d="M62.8208 117V97.26H65.2568L72.5648 110.896L79.8448 97.26H82.2248V117H79.6208V102.524L73.4328 113.976H71.6688L65.4528 102.58V117H62.8208ZM92.5099 117.252C91.1286 117.252 89.9339 116.963 88.9259 116.384C87.9179 115.805 87.1339 114.993 86.5739 113.948C86.0326 112.884 85.7619 111.624 85.7619 110.168C85.7619 108.712 86.0326 107.461 86.5739 106.416C87.1339 105.352 87.9179 104.531 88.9259 103.952C89.9339 103.373 91.1286 103.084 92.5099 103.084C93.8539 103.084 95.0299 103.373 96.0379 103.952C97.0459 104.531 97.8299 105.352 98.3899 106.416C98.9499 107.461 99.2299 108.712 99.2299 110.168C99.2299 111.624 98.9499 112.884 98.3899 113.948C97.8299 114.993 97.0459 115.805 96.0379 116.384C95.0299 116.963 93.8539 117.252 92.5099 117.252ZM92.5099 115.068C93.6673 115.068 94.6006 114.648 95.3099 113.808C96.0193 112.968 96.3739 111.755 96.3739 110.168C96.3739 108.581 96.0193 107.377 95.3099 106.556C94.6006 105.716 93.6673 105.296 92.5099 105.296C91.3339 105.296 90.3913 105.716 89.6819 106.556C88.9726 107.377 88.6179 108.581 88.6179 110.168C88.6179 111.755 88.9726 112.968 89.6819 113.808C90.3913 114.648 91.3339 115.068 92.5099 115.068ZM108.093 117.252C106.376 117.252 105.097 116.813 104.257 115.936C103.417 115.059 102.997 113.789 102.997 112.128V105.52H100.337V103.336H102.997V99.22H105.825V103.336H110.053V105.52H105.825V111.904C105.825 112.893 106.031 113.64 106.441 114.144C106.871 114.648 107.561 114.9 108.513 114.9C108.812 114.9 109.101 114.872 109.381 114.816C109.661 114.741 109.941 114.657 110.221 114.564L110.669 116.692C110.389 116.86 109.997 116.991 109.493 117.084C109.008 117.196 108.541 117.252 108.093 117.252ZM112.244 100.172V97.232H115.548V100.172H112.244ZM112.496 117V103.336H115.324V117H112.496ZM125.24 117.252C123.859 117.252 122.664 116.963 121.656 116.384C120.648 115.805 119.864 114.993 119.304 113.948C118.763 112.884 118.492 111.624 118.492 110.168C118.492 108.712 118.763 107.461 119.304 106.416C119.864 105.352 120.648 104.531 121.656 103.952C122.664 103.373 123.859 103.084 125.24 103.084C126.584 103.084 127.76 103.373 128.768 103.952C129.776 104.531 130.56 105.352 131.12 106.416C131.68 107.461 131.96 108.712 131.96 110.168C131.96 111.624 131.68 112.884 131.12 113.948C130.56 114.993 129.776 115.805 128.768 116.384C127.76 116.963 126.584 117.252 125.24 117.252ZM125.24 115.068C126.398 115.068 127.331 114.648 128.04 113.808C128.75 112.968 129.104 111.755 129.104 110.168C129.104 108.581 128.75 107.377 128.04 106.556C127.331 105.716 126.398 105.296 125.24 105.296C124.064 105.296 123.122 105.716 122.412 106.556C121.703 107.377 121.348 108.581 121.348 110.168C121.348 111.755 121.703 112.968 122.412 113.808C123.122 114.648 124.064 115.068 125.24 115.068ZM135.136 117V103.336H137.88V105.604C138.347 104.783 138.982 104.157 139.784 103.728C140.606 103.299 141.52 103.084 142.528 103.084C145.758 103.084 147.372 104.913 147.372 108.572V117H144.544V108.74C144.544 107.564 144.311 106.705 143.844 106.164C143.396 105.623 142.687 105.352 141.716 105.352C140.578 105.352 139.663 105.716 138.972 106.444C138.3 107.153 137.964 108.096 137.964 109.272V117H135.136ZM163.833 117.252C162.638 117.252 161.583 116.972 160.669 116.412C159.773 115.833 159.073 115.012 158.569 113.948C158.065 112.884 157.813 111.624 157.813 110.168C157.813 108.712 158.065 107.461 158.569 106.416C159.073 105.352 159.773 104.531 160.669 103.952C161.565 103.373 162.619 103.084 163.833 103.084C164.859 103.084 165.774 103.308 166.577 103.756C167.379 104.204 167.977 104.811 168.369 105.576V97.26H171.197V117H168.425V114.62C168.033 115.441 167.426 116.085 166.605 116.552C165.802 117.019 164.878 117.252 163.833 117.252ZM164.561 115.068C165.718 115.068 166.651 114.648 167.361 113.808C168.07 112.968 168.425 111.755 168.425 110.168C168.425 108.581 168.07 107.377 167.361 106.556C166.651 105.716 165.718 105.296 164.561 105.296C163.385 105.296 162.442 105.716 161.733 106.556C161.023 107.377 160.669 108.581 160.669 110.168C160.669 111.755 161.023 112.968 161.733 113.808C162.442 114.648 163.385 115.068 164.561 115.068ZM174.916 100.172V97.232H178.22V100.172H174.916ZM175.168 117V103.336H177.996V117H175.168ZM181.444 117V115.152L188.892 105.52H181.444V103.336H192V105.212L184.552 114.844H192.308V117H181.444ZM199.305 117.252C198.353 117.252 197.504 117.065 196.757 116.692C196.011 116.319 195.413 115.815 194.965 115.18C194.536 114.545 194.321 113.827 194.321 113.024C194.321 112.016 194.573 111.223 195.077 110.644C195.6 110.065 196.449 109.645 197.625 109.384C198.82 109.123 200.425 108.992 202.441 108.992H203.393V108.264C203.393 107.2 203.169 106.435 202.721 105.968C202.273 105.501 201.536 105.268 200.509 105.268C199.725 105.268 198.941 105.389 198.157 105.632C197.373 105.856 196.571 106.22 195.749 106.724L194.881 104.736C195.591 104.232 196.477 103.831 197.541 103.532C198.605 103.233 199.623 103.084 200.593 103.084C202.46 103.084 203.841 103.532 204.737 104.428C205.633 105.305 206.081 106.687 206.081 108.572V117H203.421V114.732C203.085 115.516 202.563 116.132 201.853 116.58C201.144 117.028 200.295 117.252 199.305 117.252ZM199.865 115.236C200.873 115.236 201.713 114.881 202.385 114.172C203.057 113.463 203.393 112.567 203.393 111.484V110.728H202.469C201.107 110.728 200.033 110.793 199.249 110.924C198.484 111.055 197.933 111.279 197.597 111.596C197.28 111.895 197.121 112.315 197.121 112.856C197.121 113.565 197.364 114.144 197.849 114.592C198.335 115.021 199.007 115.236 199.865 115.236ZM211.24 122.04L213.676 116.636L207.964 103.336H210.988L215.188 113.724L219.444 103.336H222.356L214.208 122.04H211.24ZM224.386 117V103.336H227.13V105.604C227.597 104.783 228.232 104.157 229.034 103.728C229.856 103.299 230.77 103.084 231.778 103.084C235.008 103.084 236.622 104.913 236.622 108.572V117H233.794V108.74C233.794 107.564 233.561 106.705 233.094 106.164C232.646 105.623 231.937 105.352 230.966 105.352C229.828 105.352 228.913 105.716 228.222 106.444C227.55 107.153 227.214 108.096 227.214 109.272V117H224.386Z" fill="white"/>
<path d="M26.8915 168V153.9H32.5315C33.9848 153.9 35.1048 154.227 35.8915 154.88C36.6915 155.52 37.0915 156.42 37.0915 157.58C37.0915 158.353 36.8915 159.013 36.4915 159.56C36.0915 160.107 35.5382 160.507 34.8315 160.76C35.6448 160.973 36.2782 161.367 36.7315 161.94C37.1982 162.513 37.4315 163.24 37.4315 164.12C37.4315 165.373 37.0248 166.333 36.2115 167C35.3982 167.667 34.2515 168 32.7715 168H26.8915ZM28.4915 160.2H32.2915C34.4115 160.2 35.4715 159.373 35.4715 157.72C35.4715 156.053 34.4115 155.22 32.2915 155.22H28.4915V160.2ZM28.4915 166.68H32.6115C34.7448 166.68 35.8115 165.82 35.8115 164.1C35.8115 162.38 34.7448 161.52 32.6115 161.52H28.4915V166.68ZM39.4869 155.86V154.04H41.4869V155.86H39.4869ZM39.6869 168V158.28H41.3069V168H39.6869ZM43.4151 168V166.92L48.9751 159.54H43.4151V158.28H50.7751V159.36L45.2151 166.74H50.9951V168H43.4151ZM56.0974 168.18C55.2308 168.18 54.4708 167.973 53.8174 167.56C53.1774 167.147 52.6774 166.567 52.3174 165.82C51.9708 165.06 51.7974 164.167 51.7974 163.14C51.7974 162.1 51.9708 161.207 52.3174 160.46C52.6774 159.7 53.1774 159.12 53.8174 158.72C54.4708 158.307 55.2308 158.1 56.0974 158.1C56.8574 158.1 57.5241 158.267 58.0974 158.6C58.6841 158.933 59.1174 159.393 59.3974 159.98V153.9H61.0174V168H59.4374V166.22C59.1574 166.833 58.7241 167.313 58.1374 167.66C57.5508 168.007 56.8708 168.18 56.0974 168.18ZM56.4374 166.88C57.3441 166.88 58.0708 166.56 58.6174 165.92C59.1641 165.267 59.4374 164.34 59.4374 163.14C59.4374 161.927 59.1641 161 58.6174 160.36C58.0708 159.72 57.3441 159.4 56.4374 159.4C55.5174 159.4 54.7841 159.72 54.2374 160.36C53.7041 161 53.4374 161.927 53.4374 163.14C53.4374 164.34 53.7041 165.267 54.2374 165.92C54.7841 166.56 55.5174 166.88 56.4374 166.88ZM66.6174 168.18C65.9507 168.18 65.3507 168.053 64.8174 167.8C64.2974 167.533 63.884 167.173 63.5774 166.72C63.2707 166.267 63.1174 165.76 63.1174 165.2C63.1174 164.493 63.2974 163.933 63.6574 163.52C64.0307 163.107 64.6374 162.813 65.4774 162.64C66.3307 162.453 67.4907 162.36 68.9574 162.36H69.5974V161.74C69.5974 160.913 69.424 160.32 69.0774 159.96C68.744 159.587 68.204 159.4 67.4574 159.4C66.8707 159.4 66.304 159.487 65.7574 159.66C65.2107 159.82 64.6507 160.087 64.0774 160.46L63.5174 159.28C64.024 158.92 64.6374 158.633 65.3574 158.42C66.0907 158.207 66.7907 158.1 67.4574 158.1C68.7107 158.1 69.6374 158.407 70.2374 159.02C70.8507 159.633 71.1574 160.587 71.1574 161.88V168H69.6374V166.32C69.384 166.893 68.9907 167.347 68.4574 167.68C67.9374 168.013 67.324 168.18 66.6174 168.18ZM66.8774 166.96C67.6774 166.96 68.3307 166.687 68.8374 166.14C69.344 165.58 69.5974 164.873 69.5974 164.02V163.42H68.9774C67.8974 163.42 67.044 163.473 66.4174 163.58C65.804 163.673 65.3707 163.847 65.1174 164.1C64.8774 164.34 64.7574 164.673 64.7574 165.1C64.7574 165.647 64.944 166.093 65.3174 166.44C65.704 166.787 66.224 166.96 66.8774 166.96ZM73.6626 168V158.28H75.2426V159.94C75.5626 159.327 76.016 158.867 76.6026 158.56C77.1893 158.253 77.8493 158.1 78.5826 158.1C80.8893 158.1 82.0426 159.38 82.0426 161.94V168H80.4226V162.04C80.4226 161.133 80.2426 160.473 79.8826 160.06C79.536 159.633 78.976 159.42 78.2026 159.42C77.3093 159.42 76.596 159.7 76.0626 160.26C75.5426 160.807 75.2826 161.54 75.2826 162.46V168H73.6626ZM93.5461 168.18C92.0128 168.18 90.7994 167.733 89.9061 166.84C89.0128 165.933 88.5661 164.707 88.5661 163.16C88.5661 162.16 88.7661 161.28 89.1661 160.52C89.5661 159.747 90.1128 159.153 90.8061 158.74C91.5128 158.313 92.3261 158.1 93.2461 158.1C94.5661 158.1 95.5994 158.527 96.3461 159.38C97.0928 160.22 97.4661 161.38 97.4661 162.86V163.48H90.1461C90.1994 164.587 90.5194 165.433 91.1061 166.02C91.6928 166.593 92.5061 166.88 93.5461 166.88C94.1328 166.88 94.6928 166.793 95.2261 166.62C95.7594 166.433 96.2661 166.133 96.7461 165.72L97.3061 166.86C96.8661 167.273 96.3061 167.6 95.6261 167.84C94.9461 168.067 94.2528 168.18 93.5461 168.18ZM93.2861 159.3C92.3661 159.3 91.6394 159.587 91.1061 160.16C90.5728 160.733 90.2594 161.487 90.1661 162.42H96.0661C96.0261 161.433 95.7661 160.667 95.2861 160.12C94.8194 159.573 94.1528 159.3 93.2861 159.3ZM99.3104 168V158.28H100.89V159.94C101.21 159.327 101.664 158.867 102.25 158.56C102.837 158.253 103.497 158.1 104.23 158.1C106.537 158.1 107.69 159.38 107.69 161.94V168H106.07V162.04C106.07 161.133 105.89 160.473 105.53 160.06C105.184 159.633 104.624 159.42 103.85 159.42C102.957 159.42 102.244 159.7 101.71 160.26C101.19 160.807 100.93 161.54 100.93 162.46V168H99.3104ZM114.477 171.78C113.637 171.78 112.844 171.667 112.097 171.44C111.364 171.227 110.711 170.9 110.137 170.46L110.677 169.28C111.277 169.707 111.871 170.013 112.457 170.2C113.057 170.387 113.704 170.48 114.397 170.48C116.317 170.48 117.277 169.493 117.277 167.52V165.8C116.997 166.413 116.557 166.9 115.957 167.26C115.371 167.607 114.697 167.78 113.937 167.78C113.044 167.78 112.271 167.573 111.617 167.16C110.964 166.747 110.457 166.18 110.097 165.46C109.751 164.727 109.577 163.88 109.577 162.92C109.577 161.96 109.751 161.12 110.097 160.4C110.457 159.667 110.964 159.1 111.617 158.7C112.271 158.3 113.044 158.1 113.937 158.1C114.697 158.1 115.371 158.273 115.957 158.62C116.557 158.967 116.997 159.44 117.277 160.04V158.28H118.857V167.3C118.857 168.793 118.484 169.913 117.737 170.66C117.004 171.407 115.917 171.78 114.477 171.78ZM114.237 166.46C115.171 166.46 115.911 166.14 116.457 165.5C117.004 164.86 117.277 164 117.277 162.92C117.277 161.84 117.004 160.987 116.457 160.36C115.911 159.72 115.171 159.4 114.237 159.4C113.317 159.4 112.584 159.72 112.037 160.36C111.491 160.987 111.217 161.84 111.217 162.92C111.217 164 111.491 164.86 112.037 165.5C112.584 166.14 113.317 166.46 114.237 166.46ZM127.152 171.6L128.812 167.84L124.712 158.28H126.472L129.692 166.16L132.932 158.28H134.632L128.852 171.6H127.152ZM138.67 168.18C138.004 168.18 137.404 168.053 136.87 167.8C136.35 167.533 135.937 167.173 135.63 166.72C135.324 166.267 135.17 165.76 135.17 165.2C135.17 164.493 135.35 163.933 135.71 163.52C136.084 163.107 136.69 162.813 137.53 162.64C138.384 162.453 139.544 162.36 141.01 162.36H141.65V161.74C141.65 160.913 141.477 160.32 141.13 159.96C140.797 159.587 140.257 159.4 139.51 159.4C138.924 159.4 138.357 159.487 137.81 159.66C137.264 159.82 136.704 160.087 136.13 160.46L135.57 159.28C136.077 158.92 136.69 158.633 137.41 158.42C138.144 158.207 138.844 158.1 139.51 158.1C140.764 158.1 141.69 158.407 142.29 159.02C142.904 159.633 143.21 160.587 143.21 161.88V168H141.69V166.32C141.437 166.893 141.044 167.347 140.51 167.68C139.99 168.013 139.377 168.18 138.67 168.18ZM138.93 166.96C139.73 166.96 140.384 166.687 140.89 166.14C141.397 165.58 141.65 164.873 141.65 164.02V163.42H141.03C139.95 163.42 139.097 163.473 138.47 163.58C137.857 163.673 137.424 163.847 137.17 164.1C136.93 164.34 136.81 164.673 136.81 165.1C136.81 165.647 136.997 166.093 137.37 166.44C137.757 166.787 138.277 166.96 138.93 166.96ZM144.476 168L148.516 162.98L144.716 158.28H146.636L149.456 161.86L152.296 158.28H154.196L150.396 162.98L154.436 168H152.516L149.436 164.14L146.396 168H144.476ZM158.906 168.18C158.146 168.18 157.426 168.073 156.746 167.86C156.066 167.647 155.506 167.347 155.066 166.96L155.586 165.82C156.066 166.207 156.592 166.493 157.166 166.68C157.752 166.853 158.346 166.94 158.946 166.94C159.706 166.94 160.279 166.8 160.666 166.52C161.052 166.24 161.246 165.86 161.246 165.38C161.246 165.007 161.119 164.713 160.866 164.5C160.612 164.273 160.212 164.1 159.666 163.98L157.846 163.58C156.192 163.22 155.366 162.367 155.366 161.02C155.366 160.14 155.712 159.433 156.406 158.9C157.112 158.367 158.032 158.1 159.166 158.1C159.832 158.1 160.466 158.207 161.066 158.42C161.679 158.62 162.186 158.92 162.586 159.32L162.046 160.46C161.659 160.1 161.206 159.827 160.686 159.64C160.179 159.44 159.672 159.34 159.166 159.34C158.419 159.34 157.852 159.487 157.466 159.78C157.079 160.073 156.886 160.46 156.886 160.94C156.886 161.687 157.379 162.167 158.366 162.38L160.186 162.76C161.039 162.947 161.686 163.247 162.126 163.66C162.566 164.06 162.786 164.607 162.786 165.3C162.786 166.193 162.432 166.9 161.726 167.42C161.019 167.927 160.079 168.18 158.906 168.18ZM164.754 168V153.9H166.374V159.88C166.694 159.293 167.141 158.853 167.714 158.56C168.301 158.253 168.954 158.1 169.674 158.1C171.981 158.1 173.134 159.38 173.134 161.94V168H171.514V162.04C171.514 161.133 171.334 160.473 170.974 160.06C170.628 159.633 170.068 159.42 169.294 159.42C168.401 159.42 167.688 159.7 167.154 160.26C166.634 160.807 166.374 161.54 166.374 162.46V168H164.754ZM175.421 155.86V154.04H177.421V155.86H175.421ZM175.621 168V158.28H177.241V168H175.621ZM187.266 168L183.086 158.28H184.846L188.066 166.16L191.326 158.28H192.986L188.786 168H187.266ZM197.063 168.18C196.397 168.18 195.797 168.053 195.263 167.8C194.743 167.533 194.33 167.173 194.023 166.72C193.717 166.267 193.563 165.76 193.563 165.2C193.563 164.493 193.743 163.933 194.103 163.52C194.477 163.107 195.083 162.813 195.923 162.64C196.777 162.453 197.937 162.36 199.403 162.36H200.043V161.74C200.043 160.913 199.87 160.32 199.523 159.96C199.19 159.587 198.65 159.4 197.903 159.4C197.317 159.4 196.75 159.487 196.203 159.66C195.657 159.82 195.097 160.087 194.523 160.46L193.963 159.28C194.47 158.92 195.083 158.633 195.803 158.42C196.537 158.207 197.237 158.1 197.903 158.1C199.157 158.1 200.083 158.407 200.683 159.02C201.297 159.633 201.603 160.587 201.603 161.88V168H200.083V166.32C199.83 166.893 199.437 167.347 198.903 167.68C198.383 168.013 197.77 168.18 197.063 168.18ZM197.323 166.96C198.123 166.96 198.777 166.687 199.283 166.14C199.79 165.58 200.043 164.873 200.043 164.02V163.42H199.423C198.343 163.42 197.49 163.473 196.863 163.58C196.25 163.673 195.817 163.847 195.563 164.1C195.323 164.34 195.203 164.673 195.203 165.1C195.203 165.647 195.39 166.093 195.763 166.44C196.15 166.787 196.67 166.96 197.323 166.96ZM213.125 168.18C211.592 168.18 210.379 167.733 209.485 166.84C208.592 165.933 208.145 164.707 208.145 163.16C208.145 162.16 208.345 161.28 208.745 160.52C209.145 159.747 209.692 159.153 210.385 158.74C211.092 158.313 211.905 158.1 212.825 158.1C214.145 158.1 215.179 158.527 215.925 159.38C216.672 160.22 217.045 161.38 217.045 162.86V163.48H209.725C209.779 164.587 210.099 165.433 210.685 166.02C211.272 166.593 212.085 166.88 213.125 166.88C213.712 166.88 214.272 166.793 214.805 166.62C215.339 166.433 215.845 166.133 216.325 165.72L216.885 166.86C216.445 167.273 215.885 167.6 215.205 167.84C214.525 168.067 213.832 168.18 213.125 168.18ZM212.865 159.3C211.945 159.3 211.219 159.587 210.685 160.16C210.152 160.733 209.839 161.487 209.745 162.42H215.645C215.605 161.433 215.345 160.667 214.865 160.12C214.399 159.573 213.732 159.3 212.865 159.3ZM218.89 168V158.28H220.47V159.94C220.79 159.327 221.243 158.867 221.83 158.56C222.416 158.253 223.076 158.1 223.81 158.1C226.116 158.1 227.27 159.38 227.27 161.94V168H225.65V162.04C225.65 161.133 225.47 160.473 225.11 160.06C224.763 159.633 224.203 159.42 223.43 159.42C222.536 159.42 221.823 159.7 221.29 160.26C220.77 160.807 220.51 161.54 220.51 162.46V168H218.89ZM234.056 171.78C233.216 171.78 232.423 171.667 231.676 171.44C230.943 171.227 230.29 170.9 229.716 170.46L230.256 169.28C230.856 169.707 231.45 170.013 232.036 170.2C232.636 170.387 233.283 170.48 233.976 170.48C235.896 170.48 236.856 169.493 236.856 167.52V165.8C236.576 166.413 236.136 166.9 235.536 167.26C234.95 167.607 234.276 167.78 233.516 167.78C232.623 167.78 231.85 167.573 231.196 167.16C230.543 166.747 230.036 166.18 229.676 165.46C229.33 164.727 229.156 163.88 229.156 162.92C229.156 161.96 229.33 161.12 229.676 160.4C230.036 159.667 230.543 159.1 231.196 158.7C231.85 158.3 232.623 158.1 233.516 158.1C234.276 158.1 234.95 158.273 235.536 158.62C236.136 158.967 236.576 159.44 236.856 160.04V158.28H238.436V167.3C238.436 168.793 238.063 169.913 237.316 170.66C236.583 171.407 235.496 171.78 234.056 171.78ZM233.816 166.46C234.75 166.46 235.49 166.14 236.036 165.5C236.583 164.86 236.856 164 236.856 162.92C236.856 161.84 236.583 160.987 236.036 160.36C235.49 159.72 234.75 159.4 233.816 159.4C232.896 159.4 232.163 159.72 231.616 160.36C231.07 160.987 230.796 161.84 230.796 162.92C230.796 164 231.07 164.86 231.616 165.5C232.163 166.14 232.896 166.46 233.816 166.46ZM245.192 168V166.92L250.752 159.54H245.192V158.28H252.552V159.36L246.992 166.74H252.772V168H245.192ZM258.214 168.18C257.267 168.18 256.447 167.973 255.754 167.56C255.06 167.147 254.52 166.567 254.134 165.82C253.76 165.06 253.574 164.167 253.574 163.14C253.574 162.113 253.76 161.227 254.134 160.48C254.52 159.72 255.06 159.133 255.754 158.72C256.447 158.307 257.267 158.1 258.214 158.1C259.147 158.1 259.96 158.307 260.654 158.72C261.36 159.133 261.9 159.72 262.274 160.48C262.66 161.227 262.854 162.113 262.854 163.14C262.854 164.167 262.66 165.06 262.274 165.82C261.9 166.567 261.36 167.147 260.654 167.56C259.96 167.973 259.147 168.18 258.214 168.18ZM258.214 166.88C259.12 166.88 259.847 166.56 260.394 165.92C260.94 165.267 261.214 164.34 261.214 163.14C261.214 161.927 260.94 161 260.394 160.36C259.847 159.72 259.12 159.4 258.214 159.4C257.294 159.4 256.56 159.72 256.014 160.36C255.48 161 255.214 161.927 255.214 163.14C255.214 164.34 255.48 165.267 256.014 165.92C256.56 166.56 257.294 166.88 258.214 166.88ZM264.947 159.44L264.527 153.9H266.427L266.047 159.44H264.947ZM268.701 168V158.28H270.281V160.02C270.801 158.847 271.867 158.2 273.481 158.08L274.061 158.02L274.181 159.42L273.161 159.54C272.241 159.62 271.541 159.913 271.061 160.42C270.581 160.913 270.341 161.593 270.341 162.46V168H268.701ZM24.6547 196.18C23.8947 196.18 23.1747 196.073 22.4947 195.86C21.8147 195.647 21.2547 195.347 20.8147 194.96L21.3347 193.82C21.8147 194.207 22.3414 194.493 22.9147 194.68C23.5014 194.853 24.0947 194.94 24.6947 194.94C25.4547 194.94 26.0281 194.8 26.4147 194.52C26.8014 194.24 26.9947 193.86 26.9947 193.38C26.9947 193.007 26.8681 192.713 26.6147 192.5C26.3614 192.273 25.9614 192.1 25.4147 191.98L23.5947 191.58C21.9414 191.22 21.1147 190.367 21.1147 189.02C21.1147 188.14 21.4614 187.433 22.1547 186.9C22.8614 186.367 23.7814 186.1 24.9147 186.1C25.5814 186.1 26.2147 186.207 26.8147 186.42C27.4281 186.62 27.9347 186.92 28.3347 187.32L27.7947 188.46C27.4081 188.1 26.9547 187.827 26.4347 187.64C25.9281 187.44 25.4214 187.34 24.9147 187.34C24.1681 187.34 23.6014 187.487 23.2147 187.78C22.8281 188.073 22.6347 188.46 22.6347 188.94C22.6347 189.687 23.1281 190.167 24.1147 190.38L25.9347 190.76C26.7881 190.947 27.4347 191.247 27.8747 191.66C28.3147 192.06 28.5347 192.607 28.5347 193.3C28.5347 194.193 28.1814 194.9 27.4747 195.42C26.7681 195.927 25.8281 196.18 24.6547 196.18ZM30.3034 183.86V182.04H32.3034V183.86H30.3034ZM30.5034 196V186.28H32.1234V196H30.5034ZM35.1716 196V187.54H33.2516V186.28H35.1716V185.94C35.1716 184.647 35.4916 183.667 36.1316 183C36.785 182.333 37.785 181.96 39.1316 181.88L39.9116 181.84L40.0516 183.08L39.1316 183.14C38.305 183.207 37.705 183.453 37.3316 183.88C36.9716 184.307 36.7916 184.927 36.7916 185.74V186.28H39.5916V187.54H36.7916V196H35.1716ZM43.7739 196.18C43.1073 196.18 42.5073 196.053 41.9739 195.8C41.4539 195.533 41.0406 195.173 40.7339 194.72C40.4273 194.267 40.2739 193.76 40.2739 193.2C40.2739 192.493 40.4539 191.933 40.8139 191.52C41.1873 191.107 41.7939 190.813 42.6339 190.64C43.4873 190.453 44.6473 190.36 46.1139 190.36H46.7539V189.74C46.7539 188.913 46.5806 188.32 46.2339 187.96C45.9006 187.587 45.3606 187.4 44.6139 187.4C44.0273 187.4 43.4606 187.487 42.9139 187.66C42.3673 187.82 41.8073 188.087 41.2339 188.46L40.6739 187.28C41.1806 186.92 41.7939 186.633 42.5139 186.42C43.2473 186.207 43.9473 186.1 44.6139 186.1C45.8673 186.1 46.7939 186.407 47.3939 187.02C48.0073 187.633 48.3139 188.587 48.3139 189.88V196H46.7939V194.32C46.5406 194.893 46.1473 195.347 45.6139 195.68C45.0939 196.013 44.4806 196.18 43.7739 196.18ZM44.0339 194.96C44.8339 194.96 45.4873 194.687 45.9939 194.14C46.5006 193.58 46.7539 192.873 46.7539 192.02V191.42H46.1339C45.0539 191.42 44.2006 191.473 43.5739 191.58C42.9606 191.673 42.5273 191.847 42.2739 192.1C42.0339 192.34 41.9139 192.673 41.9139 193.1C41.9139 193.647 42.1006 194.093 42.4739 194.44C42.8606 194.787 43.3806 194.96 44.0339 194.96ZM54.7192 196.18C53.5725 196.18 52.7125 195.88 52.1392 195.28C51.5659 194.667 51.2792 193.787 51.2792 192.64V187.54H49.3792V186.28H51.2792V183.3H52.8992V186.28H55.9792V187.54H52.8992V192.48C52.8992 193.24 53.0592 193.82 53.3792 194.22C53.6992 194.607 54.2192 194.8 54.9392 194.8C55.1525 194.8 55.3659 194.773 55.5792 194.72C55.7925 194.667 55.9859 194.613 56.1592 194.56L56.4392 195.8C56.2659 195.893 56.0125 195.98 55.6792 196.06C55.3459 196.14 55.0259 196.18 54.7192 196.18ZM61.5135 199.78C60.6735 199.78 59.8802 199.667 59.1335 199.44C58.4002 199.227 57.7468 198.9 57.1735 198.46L57.7135 197.28C58.3135 197.707 58.9068 198.013 59.4935 198.2C60.0935 198.387 60.7402 198.48 61.4335 198.48C63.3535 198.48 64.3135 197.493 64.3135 195.52V193.8C64.0335 194.413 63.5935 194.9 62.9935 195.26C62.4068 195.607 61.7335 195.78 60.9735 195.78C60.0802 195.78 59.3068 195.573 58.6535 195.16C58.0002 194.747 57.4935 194.18 57.1335 193.46C56.7868 192.727 56.6135 191.88 56.6135 190.92C56.6135 189.96 56.7868 189.12 57.1335 188.4C57.4935 187.667 58.0002 187.1 58.6535 186.7C59.3068 186.3 60.0802 186.1 60.9735 186.1C61.7335 186.1 62.4068 186.273 62.9935 186.62C63.5935 186.967 64.0335 187.44 64.3135 188.04V186.28H65.8935V195.3C65.8935 196.793 65.5202 197.913 64.7735 198.66C64.0402 199.407 62.9535 199.78 61.5135 199.78ZM61.2735 194.46C62.2068 194.46 62.9468 194.14 63.4935 193.5C64.0402 192.86 64.3135 192 64.3135 190.92C64.3135 189.84 64.0402 188.987 63.4935 188.36C62.9468 187.72 62.2068 187.4 61.2735 187.4C60.3535 187.4 59.6202 187.72 59.0735 188.36C58.5268 188.987 58.2535 189.84 58.2535 190.92C58.2535 192 58.5268 192.86 59.0735 193.5C59.6202 194.14 60.3535 194.46 61.2735 194.46ZM71.492 196.18C70.8254 196.18 70.2254 196.053 69.692 195.8C69.172 195.533 68.7587 195.173 68.452 194.72C68.1454 194.267 67.992 193.76 67.992 193.2C67.992 192.493 68.172 191.933 68.532 191.52C68.9054 191.107 69.512 190.813 70.352 190.64C71.2054 190.453 72.3654 190.36 73.832 190.36H74.472V189.74C74.472 188.913 74.2987 188.32 73.952 187.96C73.6187 187.587 73.0787 187.4 72.332 187.4C71.7454 187.4 71.1787 187.487 70.632 187.66C70.0854 187.82 69.5254 188.087 68.952 188.46L68.392 187.28C68.8987 186.92 69.512 186.633 70.232 186.42C70.9654 186.207 71.6654 186.1 72.332 186.1C73.5854 186.1 74.512 186.407 75.112 187.02C75.7254 187.633 76.032 188.587 76.032 189.88V196H74.512V194.32C74.2587 194.893 73.8654 195.347 73.332 195.68C72.812 196.013 72.1987 196.18 71.492 196.18ZM71.752 194.96C72.552 194.96 73.2054 194.687 73.712 194.14C74.2187 193.58 74.472 192.873 74.472 192.02V191.42H73.852C72.772 191.42 71.9187 191.473 71.292 191.58C70.6787 191.673 70.2454 191.847 69.992 192.1C69.752 192.34 69.632 192.673 69.632 193.1C69.632 193.647 69.8187 194.093 70.192 194.44C70.5787 194.787 71.0987 194.96 71.752 194.96ZM87.5538 196.18C86.0205 196.18 84.8071 195.733 83.9138 194.84C83.0205 193.933 82.5738 192.707 82.5738 191.16C82.5738 190.16 82.7738 189.28 83.1738 188.52C83.5738 187.747 84.1205 187.153 84.8138 186.74C85.5205 186.313 86.3338 186.1 87.2538 186.1C88.5738 186.1 89.6071 186.527 90.3538 187.38C91.1005 188.22 91.4738 189.38 91.4738 190.86V191.48H84.1538C84.2071 192.587 84.5271 193.433 85.1138 194.02C85.7005 194.593 86.5138 194.88 87.5538 194.88C88.1405 194.88 88.7005 194.793 89.2338 194.62C89.7672 194.433 90.2738 194.133 90.7538 193.72L91.3138 194.86C90.8738 195.273 90.3138 195.6 89.6338 195.84C88.9538 196.067 88.2605 196.18 87.5538 196.18ZM87.2938 187.3C86.3738 187.3 85.6471 187.587 85.1138 188.16C84.5805 188.733 84.2671 189.487 84.1738 190.42H90.0738C90.0338 189.433 89.7738 188.667 89.2938 188.12C88.8271 187.573 88.1605 187.3 87.2938 187.3ZM97.6181 199.78C96.7781 199.78 95.9848 199.667 95.2381 199.44C94.5048 199.227 93.8515 198.9 93.2781 198.46L93.8181 197.28C94.4181 197.707 95.0115 198.013 95.5981 198.2C96.1981 198.387 96.8448 198.48 97.5381 198.48C99.4581 198.48 100.418 197.493 100.418 195.52V193.8C100.138 194.413 99.6981 194.9 99.0981 195.26C98.5115 195.607 97.8381 195.78 97.0781 195.78C96.1848 195.78 95.4115 195.573 94.7581 195.16C94.1048 194.747 93.5981 194.18 93.2381 193.46C92.8915 192.727 92.7181 191.88 92.7181 190.92C92.7181 189.96 92.8915 189.12 93.2381 188.4C93.5981 187.667 94.1048 187.1 94.7581 186.7C95.4115 186.3 96.1848 186.1 97.0781 186.1C97.8381 186.1 98.5115 186.273 99.0981 186.62C99.6981 186.967 100.138 187.44 100.418 188.04V186.28H101.998V195.3C101.998 196.793 101.625 197.913 100.878 198.66C100.145 199.407 99.0581 199.78 97.6181 199.78ZM97.3781 194.46C98.3115 194.46 99.0515 194.14 99.5981 193.5C100.145 192.86 100.418 192 100.418 190.92C100.418 189.84 100.145 188.987 99.5981 188.36C99.0515 187.72 98.3115 187.4 97.3781 187.4C96.4581 187.4 95.7248 187.72 95.1781 188.36C94.6315 188.987 94.3581 189.84 94.3581 190.92C94.3581 192 94.6315 192.86 95.1781 193.5C95.7248 194.14 96.4581 194.46 97.3781 194.46ZM107.597 196.18C106.93 196.18 106.33 196.053 105.797 195.8C105.277 195.533 104.863 195.173 104.557 194.72C104.25 194.267 104.097 193.76 104.097 193.2C104.097 192.493 104.277 191.933 104.637 191.52C105.01 191.107 105.617 190.813 106.457 190.64C107.31 190.453 108.47 190.36 109.937 190.36H110.577V189.74C110.577 188.913 110.403 188.32 110.057 187.96C109.723 187.587 109.183 187.4 108.437 187.4C107.85 187.4 107.283 187.487 106.737 187.66C106.19 187.82 105.63 188.087 105.057 188.46L104.497 187.28C105.003 186.92 105.617 186.633 106.337 186.42C107.07 186.207 107.77 186.1 108.437 186.1C109.69 186.1 110.617 186.407 111.217 187.02C111.83 187.633 112.137 188.587 112.137 189.88V196H110.617V194.32C110.363 194.893 109.97 195.347 109.437 195.68C108.917 196.013 108.303 196.18 107.597 196.18ZM107.857 194.96C108.657 194.96 109.31 194.687 109.817 194.14C110.323 193.58 110.577 192.873 110.577 192.02V191.42H109.957C108.877 191.42 108.023 191.473 107.397 191.58C106.783 191.673 106.35 191.847 106.097 192.1C105.857 192.34 105.737 192.673 105.737 193.1C105.737 193.647 105.923 194.093 106.297 194.44C106.683 194.787 107.203 194.96 107.857 194.96ZM119.278 199.6V186.28H120.858V188.02C121.152 187.42 121.585 186.953 122.158 186.62C122.745 186.273 123.425 186.1 124.198 186.1C125.065 186.1 125.818 186.307 126.458 186.72C127.112 187.12 127.612 187.7 127.958 188.46C128.318 189.207 128.498 190.1 128.498 191.14C128.498 192.167 128.318 193.06 127.958 193.82C127.612 194.567 127.112 195.147 126.458 195.56C125.818 195.973 125.065 196.18 124.198 196.18C123.452 196.18 122.785 196.013 122.198 195.68C121.612 195.347 121.178 194.887 120.898 194.3V199.6H119.278ZM123.858 194.88C124.765 194.88 125.492 194.56 126.038 193.92C126.585 193.267 126.858 192.34 126.858 191.14C126.858 189.927 126.585 189 126.038 188.36C125.492 187.72 124.765 187.4 123.858 187.4C122.952 187.4 122.225 187.72 121.678 188.36C121.132 189 120.858 189.927 120.858 191.14C120.858 192.34 121.132 193.267 121.678 193.92C122.225 194.56 122.952 194.88 123.858 194.88ZM133.418 196.18C132.432 196.18 131.685 195.893 131.178 195.32C130.685 194.733 130.438 193.887 130.438 192.78V181.9H132.058V192.66C132.058 194.087 132.625 194.8 133.758 194.8C134.092 194.8 134.392 194.76 134.658 194.68L134.618 196.04C134.205 196.133 133.805 196.18 133.418 196.18ZM138.916 196.18C138.249 196.18 137.649 196.053 137.116 195.8C136.596 195.533 136.183 195.173 135.876 194.72C135.569 194.267 135.416 193.76 135.416 193.2C135.416 192.493 135.596 191.933 135.956 191.52C136.329 191.107 136.936 190.813 137.776 190.64C138.629 190.453 139.789 190.36 141.256 190.36H141.896V189.74C141.896 188.913 141.723 188.32 141.376 187.96C141.043 187.587 140.503 187.4 139.756 187.4C139.169 187.4 138.603 187.487 138.056 187.66C137.509 187.82 136.949 188.087 136.376 188.46L135.816 187.28C136.323 186.92 136.936 186.633 137.656 186.42C138.389 186.207 139.089 186.1 139.756 186.1C141.009 186.1 141.936 186.407 142.536 187.02C143.149 187.633 143.456 188.587 143.456 189.88V196H141.936V194.32C141.683 194.893 141.289 195.347 140.756 195.68C140.236 196.013 139.623 196.18 138.916 196.18ZM139.176 194.96C139.976 194.96 140.629 194.687 141.136 194.14C141.643 193.58 141.896 192.873 141.896 192.02V191.42H141.276C140.196 191.42 139.343 191.473 138.716 191.58C138.103 191.673 137.669 191.847 137.416 192.1C137.176 192.34 137.056 192.673 137.056 193.1C137.056 193.647 137.243 194.093 137.616 194.44C138.003 194.787 138.523 194.96 139.176 194.96ZM149.861 196.18C148.715 196.18 147.855 195.88 147.281 195.28C146.708 194.667 146.421 193.787 146.421 192.64V187.54H144.521V186.28H146.421V183.3H148.041V186.28H151.121V187.54H148.041V192.48C148.041 193.24 148.201 193.82 148.521 194.22C148.841 194.607 149.361 194.8 150.081 194.8C150.295 194.8 150.508 194.773 150.721 194.72C150.935 194.667 151.128 194.613 151.301 194.56L151.581 195.8C151.408 195.893 151.155 195.98 150.821 196.06C150.488 196.14 150.168 196.18 149.861 196.18ZM153.012 196V187.54H151.092V186.28H153.012V185.94C153.012 184.647 153.332 183.667 153.972 183C154.626 182.333 155.626 181.96 156.972 181.88L157.752 181.84L157.892 183.08L156.972 183.14C156.146 183.207 155.546 183.453 155.172 183.88C154.812 184.307 154.632 184.927 154.632 185.74V186.28H157.432V187.54H154.632V196H153.012ZM162.419 196.18C161.472 196.18 160.652 195.973 159.959 195.56C159.266 195.147 158.726 194.567 158.339 193.82C157.966 193.06 157.779 192.167 157.779 191.14C157.779 190.113 157.966 189.227 158.339 188.48C158.726 187.72 159.266 187.133 159.959 186.72C160.652 186.307 161.472 186.1 162.419 186.1C163.352 186.1 164.166 186.307 164.859 186.72C165.566 187.133 166.106 187.72 166.479 188.48C166.866 189.227 167.059 190.113 167.059 191.14C167.059 192.167 166.866 193.06 166.479 193.82C166.106 194.567 165.566 195.147 164.859 195.56C164.166 195.973 163.352 196.18 162.419 196.18ZM162.419 194.88C163.326 194.88 164.052 194.56 164.599 193.92C165.146 193.267 165.419 192.34 165.419 191.14C165.419 189.927 165.146 189 164.599 188.36C164.052 187.72 163.326 187.4 162.419 187.4C161.499 187.4 160.766 187.72 160.219 188.36C159.686 189 159.419 189.927 159.419 191.14C159.419 192.34 159.686 193.267 160.219 193.92C160.766 194.56 161.499 194.88 162.419 194.88ZM168.992 196V186.28H170.572V188.02C171.092 186.847 172.159 186.2 173.772 186.08L174.352 186.02L174.472 187.42L173.452 187.54C172.532 187.62 171.832 187.913 171.352 188.42C170.872 188.913 170.632 189.593 170.632 190.46V196H168.992ZM175.7 196V186.28H177.28V187.92C177.573 187.333 177.98 186.887 178.5 186.58C179.02 186.26 179.626 186.1 180.32 186.1C181.84 186.1 182.813 186.76 183.24 188.08C183.533 187.467 183.966 186.987 184.54 186.64C185.113 186.28 185.773 186.1 186.52 186.1C188.68 186.1 189.76 187.38 189.76 189.94V196H188.14V190.02C188.14 189.127 187.98 188.473 187.66 188.06C187.353 187.633 186.84 187.42 186.12 187.42C185.333 187.42 184.706 187.7 184.24 188.26C183.773 188.82 183.54 189.567 183.54 190.5V196H181.92V190.02C181.92 189.127 181.76 188.473 181.44 188.06C181.133 187.633 180.62 187.42 179.9 187.42C179.1 187.42 178.466 187.7 178 188.26C177.546 188.82 177.32 189.567 177.32 190.5V196H175.7ZM195.348 196.18C194.682 196.18 194.082 196.053 193.548 195.8C193.028 195.533 192.615 195.173 192.308 194.72C192.002 194.267 191.848 193.76 191.848 193.2C191.848 192.493 192.028 191.933 192.388 191.52C192.762 191.107 193.368 190.813 194.208 190.64C195.062 190.453 196.222 190.36 197.688 190.36H198.328V189.74C198.328 188.913 198.155 188.32 197.808 187.96C197.475 187.587 196.935 187.4 196.188 187.4C195.602 187.4 195.035 187.487 194.488 187.66C193.942 187.82 193.382 188.087 192.808 188.46L192.248 187.28C192.755 186.92 193.368 186.633 194.088 186.42C194.822 186.207 195.522 186.1 196.188 186.1C197.442 186.1 198.368 186.407 198.968 187.02C199.582 187.633 199.888 188.587 199.888 189.88V196H198.368V194.32C198.115 194.893 197.722 195.347 197.188 195.68C196.668 196.013 196.055 196.18 195.348 196.18ZM195.608 194.96C196.408 194.96 197.062 194.687 197.568 194.14C198.075 193.58 198.328 192.873 198.328 192.02V191.42H197.708C196.628 191.42 195.775 191.473 195.148 191.58C194.535 191.673 194.102 191.847 193.848 192.1C193.608 192.34 193.488 192.673 193.488 193.1C193.488 193.647 193.675 194.093 194.048 194.44C194.435 194.787 194.955 194.96 195.608 194.96ZM208.15 199.6L209.81 195.84L205.71 186.28H207.47L210.69 194.16L213.93 186.28H215.63L209.85 199.6H208.15ZM219.668 196.18C219.001 196.18 218.401 196.053 217.868 195.8C217.348 195.533 216.935 195.173 216.628 194.72C216.321 194.267 216.168 193.76 216.168 193.2C216.168 192.493 216.348 191.933 216.708 191.52C217.081 191.107 217.688 190.813 218.528 190.64C219.381 190.453 220.541 190.36 222.008 190.36H222.648V189.74C222.648 188.913 222.475 188.32 222.128 187.96C221.795 187.587 221.255 187.4 220.508 187.4C219.921 187.4 219.355 187.487 218.808 187.66C218.261 187.82 217.701 188.087 217.128 188.46L216.568 187.28C217.075 186.92 217.688 186.633 218.408 186.42C219.141 186.207 219.841 186.1 220.508 186.1C221.761 186.1 222.688 186.407 223.288 187.02C223.901 187.633 224.208 188.587 224.208 189.88V196H222.688V194.32C222.435 194.893 222.041 195.347 221.508 195.68C220.988 196.013 220.375 196.18 219.668 196.18ZM219.928 194.96C220.728 194.96 221.381 194.687 221.888 194.14C222.395 193.58 222.648 192.873 222.648 192.02V191.42H222.028C220.948 191.42 220.095 191.473 219.468 191.58C218.855 191.673 218.421 191.847 218.168 192.1C217.928 192.34 217.808 192.673 217.808 193.1C217.808 193.647 217.995 194.093 218.368 194.44C218.755 194.787 219.275 194.96 219.928 194.96ZM226.713 196V186.28H228.293V188.02C228.813 186.847 229.88 186.2 231.493 186.08L232.073 186.02L232.193 187.42L231.173 187.54C230.253 187.62 229.553 187.913 229.073 188.42C228.593 188.913 228.353 189.593 228.353 190.46V196H226.713ZM236.344 196.18C235.677 196.18 235.077 196.053 234.544 195.8C234.024 195.533 233.61 195.173 233.304 194.72C232.997 194.267 232.844 193.76 232.844 193.2C232.844 192.493 233.024 191.933 233.384 191.52C233.757 191.107 234.364 190.813 235.204 190.64C236.057 190.453 237.217 190.36 238.684 190.36H239.324V189.74C239.324 188.913 239.15 188.32 238.804 187.96C238.47 187.587 237.93 187.4 237.184 187.4C236.597 187.4 236.03 187.487 235.484 187.66C234.937 187.82 234.377 188.087 233.804 188.46L233.244 187.28C233.75 186.92 234.364 186.633 235.084 186.42C235.817 186.207 236.517 186.1 237.184 186.1C238.437 186.1 239.364 186.407 239.964 187.02C240.577 187.633 240.884 188.587 240.884 189.88V196H239.364V194.32C239.11 194.893 238.717 195.347 238.184 195.68C237.664 196.013 237.05 196.18 236.344 196.18ZM236.604 194.96C237.404 194.96 238.057 194.687 238.564 194.14C239.07 193.58 239.324 192.873 239.324 192.02V191.42H238.704C237.624 191.42 236.77 191.473 236.144 191.58C235.53 191.673 235.097 191.847 234.844 192.1C234.604 192.34 234.484 192.673 234.484 193.1C234.484 193.647 234.67 194.093 235.044 194.44C235.43 194.787 235.95 194.96 236.604 194.96ZM247.289 196.18C246.142 196.18 245.282 195.88 244.709 195.28C244.135 194.667 243.849 193.787 243.849 192.64V187.54H241.949V186.28H243.849V183.3H245.469V186.28H248.549V187.54H245.469V192.48C245.469 193.24 245.629 193.82 245.949 194.22C246.269 194.607 246.789 194.8 247.509 194.8C247.722 194.8 247.935 194.773 248.149 194.72C248.362 194.667 248.555 194.613 248.729 194.56L249.009 195.8C248.835 195.893 248.582 195.98 248.249 196.06C247.915 196.14 247.595 196.18 247.289 196.18ZM249.681 183.86V182.04H251.681V183.86H249.681ZM249.881 196V186.28H251.501V196H249.881ZM254.029 196V186.28H255.609V187.94C255.929 187.327 256.382 186.867 256.969 186.56C257.556 186.253 258.216 186.1 258.949 186.1C261.256 186.1 262.409 187.38 262.409 189.94V196H260.789V190.04C260.789 189.133 260.609 188.473 260.249 188.06C259.902 187.633 259.342 187.42 258.569 187.42C257.676 187.42 256.962 187.7 256.429 188.26C255.909 188.807 255.649 189.54 255.649 190.46V196H254.029ZM269.196 199.78C268.356 199.78 267.563 199.667 266.816 199.44C266.083 199.227 265.429 198.9 264.856 198.46L265.396 197.28C265.996 197.707 266.589 198.013 267.176 198.2C267.776 198.387 268.423 198.48 269.116 198.48C271.036 198.48 271.996 197.493 271.996 195.52V193.8C271.716 194.413 271.276 194.9 270.676 195.26C270.089 195.607 269.416 195.78 268.656 195.78C267.763 195.78 266.989 195.573 266.336 195.16C265.683 194.747 265.176 194.18 264.816 193.46C264.469 192.727 264.296 191.88 264.296 190.92C264.296 189.96 264.469 189.12 264.816 188.4C265.176 187.667 265.683 187.1 266.336 186.7C266.989 186.3 267.763 186.1 268.656 186.1C269.416 186.1 270.089 186.273 270.676 186.62C271.276 186.967 271.716 187.44 271.996 188.04V186.28H273.576V195.3C273.576 196.793 273.203 197.913 272.456 198.66C271.723 199.407 270.636 199.78 269.196 199.78ZM268.956 194.46C269.889 194.46 270.629 194.14 271.176 193.5C271.723 192.86 271.996 192 271.996 190.92C271.996 189.84 271.723 188.987 271.176 188.36C270.629 187.72 269.889 187.4 268.956 187.4C268.036 187.4 267.303 187.72 266.756 188.36C266.209 188.987 265.936 189.84 265.936 190.92C265.936 192 266.209 192.86 266.756 193.5C267.303 194.14 268.036 194.46 268.956 194.46ZM275.854 196V193.96H277.894V196H275.854Z" fill="white" fill-opacity="0.7"/>
<path fill-rule="evenodd" clip-rule="evenodd" d="M149.5 69C168.554 69 184 53.5538 184 34.5C184 15.4462 168.554 0 149.5 0C130.446 0 115 15.4462 115 34.5C115 53.5538 130.446 69 149.5 69Z" fill="#F04037" fill-opacity="0.1"/>
<path d="M163.333 38V30C163.333 23.3334 160.667 20.6667 154 20.6667H146C139.333 20.6667 136.667 23.3334 136.667 30V38C136.667 44.6667 139.333 47.3334 146 47.3334H154C160.667 47.3334 163.333 44.6667 163.333 38Z" stroke="#F04037" stroke-width="2" stroke-linecap="round" stroke-linejoin="round"/>
<path d="M137.36 27.48H162.64" stroke="#F04037" stroke-width="2" stroke-linecap="round" stroke-linejoin="round"/>
<path d="M145.36 20.8133V27.2933" stroke="#F04037" stroke-width="2" stroke-linecap="round" stroke-linejoin="round"/>
<path d="M154.64 20.8133V26.6933" stroke="#F04037" stroke-width="2" stroke-linecap="round" stroke-linejoin="round"/>
<path d="M147 37.2667V35.6667C147 33.6133 148.453 32.7733 150.227 33.8L151.613 34.6L153 35.4C154.773 36.4267 154.773 38.1067 153 39.1333L151.613 39.9333L150.227 40.7333C148.453 41.76 147 40.92 147 38.8667V37.2667V37.2667Z" stroke="#F04037" stroke-width="2" stroke-miterlimit="10" stroke-linecap="round" stroke-linejoin="round"/>
</svg>
